<svg xmlns="http://www.w3.org/2000/svg" width="1096.993" height="847.859" viewBox="0 0 1096.993 847.859">
  <g id="Group_247" data-name="Group 247" transform="translate(-399.734 -56.418)">
    <path id="Path_528" data-name="Path 528" d="M449.985,173.406l99.079,57.2c4.68,2.7,12.928,2.358,18.332-.759l33.079-19.1c5.4-3.117,6-7.877,1.316-10.579l-99.088-57.2c-4.68-2.7-12.928-2.367-18.332.759L451.3,162.818C445.9,165.945,445.3,170.7,449.985,173.406Z" transform="translate(368.767 663.437)" fill="#d8c4c3" opacity="0.5"/>
    <path id="Path_529" data-name="Path 529" d="M514.178,128.939c-63.209,0-114.444,27.251-114.444,60.869s51.235,60.878,114.444,60.878,114.435-27.26,114.435-60.878S577.378,128.939,514.178,128.939Z" transform="translate(0 567.878)" fill="#d8c4c3" opacity="0.5"/>
    <path id="Path_530" data-name="Path 530" d="M688.6,120.838c-21.67,2.6-57.663,32.258-94.328,46.007s-134.9,27.454-153.74,35.5-29.565,24.037-4.963,38.784,61.39-20.072,106.064-32.576,175.666-32.028,194.06-52.074S714.349,117.756,688.6,120.838Z" transform="translate(168.443 501.82)" fill="#d8c4c3" opacity="0.5"/>
    <path id="Path_531" data-name="Path 531" d="M484.688,136.94c-33.627,14.932-34.731,37.15,6.923,51.844s79.025,28.346,100.068,49.849,49.027,43.755,86.548,25.644c15.462-7.471,20.593-22.094,22.81-35.472,3.514-21.158,2.26-37.971-15.454-45.734-43.853-19.233-88.235-42.643-111.848-49.3S514.324,123.774,484.688,136.94Z" transform="translate(470.956 559.877)" fill="#d8c4c3" opacity="0.5"/>
    <path id="Path_532" data-name="Path 532" d="M753.239,222.252l-109.631,63.3c-5.925,3.426-16.372,2.985-23.215-.963L498.38,214.146c-6.844-3.947-7.594-9.988-1.669-13.4l109.631-63.3c5.925-3.417,16.38-2.985,23.224.963l122,70.441C758.414,212.8,759.164,218.834,753.239,222.252Z" transform="translate(728.088 616.419)" fill="#d8c4c3" opacity="0.5"/>
    <path id="Path_533" data-name="Path 533" d="M558.064,225.99c-24.046-10.853-35.993-47.579-38.775-71.2-2.817-23.922,1.069-49.769-8.16-72.614-7.232-17.9-21.123-26.571-40.4-25.7-9.458.424-19.339,3.17-25.7,9.148a16.613,16.613,0,0,0-6.8,16.045c0,.247-.035.477-.035.733a.266.266,0,0,0,.256.238,15.329,15.329,0,0,0,.415,1.846,16.412,16.412,0,0,0,3.8,5.81c.239.238.468.486.733.706,3.355,3.135,7.824,5.184,11.912,4.309,7.153,1.236,14.871,1.766,18.562,5.245,8.786,8.3,6.049,27.516,7.524,38.536,1.457,10.853,2.419,29.794,4.848,40.47C492.559,207.3,520.932,236.586,558.064,225.99Z" transform="translate(299.843)" fill="#2c1d1b"/>
    <path id="Path_534" data-name="Path 534" d="M436.313,66.332s10.473-14.253,24.478-4.839c18.562,12.478,13.131,25.229,8.345,28.6S436.313,66.332,436.313,66.332Z" transform="translate(286.433 14.562)" fill="#8da3ff"/>
    <path id="Path_535" data-name="Path 535" d="M467.511,120.978l8.548,18.447s-4.424,12.4-8.089,19.763-9.952,6.234-15.453,15.5.627,15.047,17.75,15.683,20.8-7.965,26.068-19.189,13.246-25.653,13.37-34.96c.185-14.632-12.389-14.173-19.719-19.215C485.278,113.773,467.511,120.978,467.511,120.978Z" transform="translate(397.937 467.894)" fill="#ffc9b6"/>
    <path id="Path_536" data-name="Path 536" d="M478.077,128.471c-2.834,7.144-7.055,16.16-21.529,18.562-18.553,3.064-22.686.044-30.881,5.5s3.3,15.851,12.328,22.288c13.246,9.431,28.558,4.954,38.3,2.782,13.025-2.905,26.474-7.3,25.8-20.178s4.557-21.485,4.557-21.485S482.836,116.452,478.077,128.471Z" transform="translate(181.143 533.554)" fill="#ffc9b6"/>
    <path id="Path_537" data-name="Path 537" d="M457.821,127.153s-.186,6.111,7.329,9.775,22.527,4.283,27.993.309a92.353,92.353,0,0,1,12.5-7.329s5.563,15.206-12.636,23.5S464.885,167.641,446.377,162s-30.315-17.714-20.231-29.618C431.109,126.526,457.821,127.153,457.821,127.153Z" transform="translate(177.865 553.742)" fill="#bbcdff"/>
    <path id="Path_538" data-name="Path 538" d="M551.937,271.262c-7.568-5.21-14.924-7.188-24.1-9.025,22.668-39.42,22.88-79.033,14.005-123.319-2.455-12.266-7.541-40.877-20.178-47.588-5.087-2.7-64.64-.521-70.645-2.367l-.362-.106c-5.351,18.7-11.8,42.943-12.389,53.222-1.537,26.456,19.656,32.876,19.656,32.876a188.077,188.077,0,0,0,3.656,25.882c5.369,25.4,16.292,61.443,31.446,82.151-1.166,13.952,8.01,17.617,19.472,20.372,8.91,2.137,41.813,35.428,60.365,49.937.088-.044,19.118-2.252,19.118-20.407C580.707,318.85,579.444,290.168,551.937,271.262Z" transform="translate(301.131 254.022)" fill="#bbcdff"/>
    <path id="Path_539" data-name="Path 539" d="M510.883,148.8c.592-10.279,7.038-34.519,12.389-53.222-10.879-3.311-25.8-5.793-29.715-7.577-35.411,52.648-45.822,120.122-46.475,183.1-8.292,13.131-5.237,30.13-5.086,45.124.291,29.07-6.579,58.22-9.961,87.087-.477,4.036-2,9.8-3.117,15.807,6.208,3.541,26.43,8.336,28.328,7.621,9.934-29.282,28.161-61.019,33.168-91.811a100.544,100.544,0,0,0,1.139-25.22c-.707-7.762-4.654-16.027-1.731-23.6,2.411-6.252,9.528-13.14,13.237-18.986,5.722-9.034,10.915-18.385,15.78-27.913,5.184-10.146,10.482-20.761,15.356-31.649a188.077,188.077,0,0,1-3.656-25.882S509.346,175.255,510.883,148.8Z" transform="translate(228.519 247.303)" fill="#a6c2ff"/>
    <path id="Path_540" data-name="Path 540" d="M457.39,83.236c15.9-20.16,25.167-17.635,44.427-6.605,23.577,13.5,42.625,22.015,52.948,30.6,17.52,14.562,27.675,44.568,30.651,82.3.45,5.731,3.9,25.229,5.943,31.022,7.241,20.61,3.709,24-1.439,28.814,2.826,2.782,5.6,14.844-.344,18.332-27.3,16.01-87.952,18.853-109.048-19.939-1.307-2.4,2.093-10.791,3.762-12.963-4.389-2.481-7.524-8.574-7.524-14.244-8.089-4.371-15-10.985-16.849-22.421-16.213-3.656-33.671-12.76-28.4-32.311,2.57-9.537,10.579-31.269,13.626-42.254C451.164,101.789,452.851,88.994,457.39,83.236Z" transform="translate(241.365 92.154)" fill="#8da3ff"/>
    <path id="Path_541" data-name="Path 541" d="M441.614,115.028c4.442-.724,16.036-6.649,12.565-28.161-.971-6.023,26.112-22.209,26.1-21.361-.292,19.5,2.773,41.769,11.7,51.88-12.875,13.458-27.6,47.553-49.636,42.881C430.249,157.7,432.854,139.851,441.614,115.028Z" transform="translate(269.441 70.915)" fill="#ffb9a4"/>
    <path id="Path_542" data-name="Path 542" d="M446.452,70.327s-3.885,20.169-6.42,27.5-7.824,24.037-7.824,24.037,7.153-3.779,11.1-1.81,7.091,7.223,10.473,8.071a21.687,21.687,0,0,0,7.78,0l2.385-9.307S456.881,116.846,456.6,105s1.13-27.913,1.13-27.913Z" transform="translate(254.297 108.914)" fill="#263364"/>
    <path id="Path_543" data-name="Path 543" d="M477.965,69.645c-.15.344-6,14.067-11.674,24.452-6.031,11.012-18.244,21.944-24.788,27.534-9.59,8.168-6.04,21.14-6.04,21.14s3.479-8.354,8.027-7.047,9.175,5.4,14.535,10.049c3.947-6.367,13.422-12.8,19.939-23.851C484.3,111.175,494.3,92.6,490.611,79.641S477.965,69.645,477.965,69.645Z" transform="translate(274.753 101.312)" fill="#263364"/>
    <path id="Path_544" data-name="Path 544" d="M440.786,65.406c17.264-3.877,26.289-4.592,41.619,1.616A85.339,85.339,0,0,1,506.918,78.3a2.158,2.158,0,0,1,.954,1.952c-3.947,22.739-11.577,46.846-37.1,56.939-20.99,8.3-32.77-14.729-36.417-30.165C430.1,89.036,428.821,68.09,440.786,65.406Z" transform="translate(247.415 47.032)" fill="#ffc9b6"/>
    <path id="Path_545" data-name="Path 545" d="M497.565,68.763c-16.487-13.343-37.309-11.709-48.638-2.49-12.01,9.767-21.635,24.266-16.231,39.835,5.643,1.121,13.652-3.894,17.467-7.144,6.914,7.727,19.153,16.857,34.112,14.747,2.949,9.484,9.254,30.324,17.917,29.759C519.536,107.742,524.057,90.222,497.565,68.763Z" transform="translate(246.048 20.644)" fill="#3f2a28"/>
    <path id="Path_546" data-name="Path 546" d="M436.809,74.281s4.124-13.97,13.228-6.8-3.78,21.317-3.78,21.317Z" transform="translate(290.318 70.6)" fill="#ffc9b6"/>
    <path id="Path_547" data-name="Path 547" d="M470.825,152.959s-1.174,3.25-9.758,8.963-10.879,13.052-10.879,17.635,9.952,11.012,23.322,10.093,21.158-5.961,27.578-18.809,15.7-41.451,13-47.791c-1.519-3.541-7.011-5.122-8.274-6.084,0,0,2.093,6.385.326,12.151a102.858,102.858,0,0,1-11.011,24.231c-4.583,7.665-12.628,8.937-18.129,6.181S470.825,152.959,470.825,152.959Z" transform="translate(395.082 474.123)" fill="#bbcdff"/>
    <path id="Path_548" data-name="Path 548" d="M400.711,128.594v56.127c0,29.635,45.16,53.655,100.88,53.655,55.7,0,100.872-24.019,100.872-53.655V128.594Z" transform="translate(7.65 565.176)" fill="#352221"/>
    <path id="Path_549" data-name="Path 549" d="M501.591,185.978c-55.721,0-100.88-24.028-100.88-53.655v8.327c0,29.626,45.16,53.654,100.88,53.654,55.7,0,100.872-24.028,100.872-53.654v-8.327C602.463,161.949,557.294,185.978,501.591,185.978Z" transform="translate(7.65 594.377)" fill="#778dfd"/>
    <path id="Path_550" data-name="Path 550" d="M535.374,124.723s-10.464,30.253-25.1,61.487-39.331,42.625-76.685,25.882S473.225,87.008,473.225,87.008Z" transform="translate(185.077 239.535)" fill="#352221"/>
    <path id="Path_551" data-name="Path 551" d="M501.591,122.8c-55.721,0-100.88,24.028-100.88,53.663s45.16,53.654,100.88,53.654c55.7,0,100.872-24.028,100.872-53.654S557.294,122.8,501.591,122.8Z" transform="translate(7.65 519.783)" fill="#472f2e"/>
    <path id="Path_552" data-name="Path 552" d="M577.63,157.658c-9.943-20.46-44.771-35.587-86.328-35.587-41.574,0-76.4,15.127-86.345,35.587h-2.932v11.895c0,26.227,39.967,47.491,89.277,47.491s89.268-21.264,89.268-47.491V157.658Z" transform="translate(17.94 514.098)" fill="#778dfd"/>
    <path id="Path_553" data-name="Path 553" d="M491.3,120.589c-49.31,0-89.277,21.255-89.277,47.482s39.967,47.491,89.277,47.491S580.57,194.3,580.57,168.071,540.6,120.589,491.3,120.589Z" transform="translate(17.94 502.493)" fill="#8da3ff"/>
    <path id="Path_554" data-name="Path 554" d="M424.142,238.511c-12.831-7.338-18.8-13.829-18.765-20.443.035-7.409,7.674-12.628,14.332-16.345,6.022-3.364,13.228-6.508,20.2-9.555,10.985-4.786,22.341-9.74,28.249-15.277,11.595-10.844,13.219-15.224,17.167-34.934,5.713-28.593,31.658-31.56,31.914-31.587l.556,5.325c-.91.1-22.3,2.676-27.225,27.313-4.1,20.5-6.164,26.015-18.756,37.795-6.579,6.155-17.838,11.073-29.768,16.275-6.853,2.994-13.935,6.084-19.719,9.316-7.788,4.353-11.577,8.177-11.594,11.7-.018,2.994,2.764,8.16,16.072,15.763Z" transform="translate(44.187 422.48)" fill="#f4ebea"/>
    <g id="Group_230" data-name="Group 230" transform="translate(565.96 732.925)">
      <path id="Path_555" data-name="Path 555" d="M418.558,177.04c0-15.948,9.687-34.474,21.653-41.371a19.871,19.871,0,0,1,9.457-2.64,26.487,26.487,0,0,1,13.873,3.885c6.808,4.212,7.727,13.785,7.727,13.785l-24.319,49.963a18.423,18.423,0,0,1-15.886-.565,24.974,24.974,0,0,1-9.4-9.784,35.494,35.494,0,0,1-1.792-4.15A29.457,29.457,0,0,1,418.558,177.04Z" transform="translate(-418.558 -133.028)" fill="#281818"/>
      <path id="Path_556" data-name="Path 556" d="M462.973,152.644c0,15.939-9.687,34.457-21.644,41.362s-21.652-.424-21.652-16.363,9.687-34.466,21.652-41.371S462.973,136.7,462.973,152.644Z" transform="translate(-409.796 -127.98)" fill="#3f2a28"/>
      <path id="Path_557" data-name="Path 557" d="M458.192,150.907c0,14.076-8.557,30.43-19.109,36.532s-19.118-.38-19.118-14.456,8.557-30.43,19.118-36.523S458.192,136.831,458.192,150.907Z" transform="translate(-407.549 -124.142)" fill="#778dfd"/>
      <path id="Path_558" data-name="Path 558" d="M440.484,144.048c0,6.976-4.239,15.074-9.467,18.094s-9.475-.185-9.475-7.162,4.248-15.074,9.475-18.094S440.484,137.072,440.484,144.048Z" transform="translate(-395.192 -111.711)" fill="#fff"/>
    </g>
    <rect id="Rectangle_64" data-name="Rectangle 64" width="195.876" height="32.434" transform="translate(527.153 632.046) rotate(-66.675)" fill="#352221"/>
    <path id="Path_559" data-name="Path 559" d="M533.827,151.523l-75.994,44.026-52.41-30.758,76-44.026Z" transform="translate(44.547 503.871)" fill="#352221"/>
    <path id="Path_560" data-name="Path 560" d="M413.9,122.877c-6.782,4.671-8.477,17.167-8.477,25.379,8.477,0,36.5-10,36.5-10l-4.76-11.3Z" transform="translate(44.548 520.409)" fill="#352221"/>
    <path id="Path_561" data-name="Path 561" d="M526.305,149.2l-12.777,18.146-54.735,21.031-52.41-30.758L473.9,118.441Z" transform="translate(52.069 485.67)" fill="#543a3a"/>
    <path id="Path_562" data-name="Path 562" d="M434.756,121.924s2.393,2.225,2.393,9.184v9.926L418.075,152.2l5.245-16.469Z" transform="translate(143.62 512.947)" fill="#472f2e"/>
    <path id="Path_563" data-name="Path 563" d="M487.354,121.924S426.979,157.14,419.835,161.1s-8.477,17.052-8.477,25.379l78.389-45.442Z" transform="translate(91.022 512.947)" fill="#472f2e"/>
    <path id="Path_564" data-name="Path 564" d="M409.957,119.789V139.94c0,9.245,14.085,16.734,31.463,16.734s31.472-7.488,31.472-16.734V119.789Z" transform="translate(80.052 496.228)" fill="#778dfd"/>
    <path id="Path_565" data-name="Path 565" d="M441.42,117.894c-17.378,0-31.463,7.488-31.463,16.734s14.085,16.743,31.463,16.743,31.472-7.5,31.472-16.743S458.8,117.894,441.42,117.894Z" transform="translate(80.052 481.389)" fill="#8da3ff"/>
    <path id="Path_566" data-name="Path 566" d="M450.783,257.2c-17.811,0-35.587-7.135-36.523-7.515a2.678,2.678,0,1,1,2.013-4.963c.274.115,27.5,11.021,46.758,5.6,21.282-6,31.923-18.421,28.461-33.256-1.422-6.084-4.363-11.074-6.959-15.48-2.958-5.025-5.757-9.766-5.607-15.03.494-17.149,9.069-28.487,14.738-35.984,1.492-1.969,2.825-3.718,3.806-5.316a38.313,38.313,0,0,0,4.194-29.591,2.68,2.68,0,0,1,5.1-1.66,43.4,43.4,0,0,1-4.733,34.059c-1.06,1.722-2.481,3.62-4.089,5.74-5.581,7.374-13.21,17.467-13.652,32.9-.115,3.718,2.19,7.63,4.865,12.168,2.791,4.733,5.952,10.093,7.559,16.981,4.124,17.679-8.23,32.867-32.232,39.631A50.782,50.782,0,0,1,450.783,257.2Z" transform="translate(100.651 436.446)" fill="#f4ebea"/>
    <path id="Path_567" data-name="Path 567" d="M552.635,110.441A63.116,63.116,0,0,0,537.94,98.5s-1.254-.857-3.25-2.013V96.48c-9.811-6.446-23.2-10.332-23.2-10.332s-44.868,77.691-60.5,115.927c-11.895,29.1-34.616,98.31-34.616,98.31s-.141,35.287,3.161,47.2l.009.018c.1.645.2,1.333.3,1.943,2.111,12.6,10.959,18.147,20.407,12.787a162.9,162.9,0,0,0,14.526-9.449c23.03-16.557,47.4-70.7,63.032-108.934s47.208-109.031,47.208-109.031S558.825,117.585,552.635,110.441Z" transform="translate(130.331 232.801)" fill="#778dfd"/>
    <path id="Path_568" data-name="Path 568" d="M542.665,106.138a63.146,63.146,0,0,0-14.694-11.93s-8.159-5.66-16.478-7.594-23.259,2.128-23.259,2.128-22.368,54.705-38.007,92.942-36.443,94.6-33.583,127.381c.724,8.31,1.572,14.888,2.446,20.081,2.1,12.61,10.959,18.156,20.407,12.8a162.6,162.6,0,0,0,14.526-9.458c23.021-16.548,47.394-70.689,63.032-108.925s38-92.942,38-92.942S548.855,113.291,542.665,106.138Z" transform="translate(130.33 232.335)" fill="#8da3ff"/>
    <path id="Path_569" data-name="Path 569" d="M489.824,118.57,441.87,91.66l-8.247,13.789,49.189,28.275Z" transform="translate(265.37 275.965)" fill="#778dfd"/>
    <path id="Path_570" data-name="Path 570" d="M449.863,99.442c0,4.018-2.437,8.68-5.448,10.411s-5.448-.106-5.448-4.115,2.437-8.68,5.448-10.42S449.863,95.424,449.863,99.442Z" transform="translate(307.208 299.477)" fill="#8da3ff"/>
    <path id="Path_571" data-name="Path 571" d="M475.062,111.034,426.9,83.353l-7.425,14.914,48.572,27.921Z" transform="translate(154.599 210.918)" fill="#778dfd"/>
    <path id="Path_572" data-name="Path 572" d="M430.181,88.081c0,4.009-2.437,8.672-5.448,10.411s-5.448-.106-5.448-4.115,2.437-8.68,5.448-10.42S430.181,84.063,430.181,88.081Z" transform="translate(153.087 210.514)" fill="#778dfd"/>
    <path id="Path_573" data-name="Path 573" d="M502.358,77.76s-5.678,13.6-7.515,19.56l-1.837,5.961s-24.249,18.685-33.706,26.827-17.175,3-27.542,9.175c-11.948,7.109-11.365,11.8-11.515,20.231s11.895,16.319,11.895,16.319,30.236-21.485,42.3-27.172c24.072-11.356,44.073-35.543,44.073-35.543s-7.559-5.934-7.17-15.348c.265-6.358,3.25-14.367,3.25-14.367A14.072,14.072,0,0,0,502.358,77.76Z" transform="translate(160.58 167.029)" fill="#ffb9a4"/>
    <path id="Path_574" data-name="Path 574" d="M549.283,139.069l.177,1.333L507.894,116.33,454.646,85.485S436.7,96.664,426.653,108.656A24.673,24.673,0,0,0,424.6,111.5l-3.046-.256V121.2c0,.23-.009.459,0,.68v.1h.009c.265,6.755,4.495,12.893,9.043,18.041,7.409,8.371,31.993,22.606,45.883,26.571s31.87,7.206,50.114-.044,34.554-19.374,34.554-19.374v-9.661Z" transform="translate(170.788 227.609)" fill="#352221"/>
    <path id="Path_575" data-name="Path 575" d="M561.168,146.081l-53.257-30.845L454.663,84.391s-17.944,11.171-27.993,23.171-3.462,22.986,3.948,31.366S462.61,161.535,476.5,165.5s31.87,7.206,50.114-.044S561.168,146.081,561.168,146.081Z" transform="translate(170.771 219.042)" fill="#472f2e"/>
    <path id="Path_576" data-name="Path 576" d="M518.269,82.406c-1.634,8.857,1.139,22.6.424,30.563-14.879,8.354-40.991,34.527-57.063,48.082-11.453,2.367-18.942-.018-26.827,15.365-4.715,9.193,1.969,19.816,10.084,23.419,9.414,4.168,16.743-1.272,17.264-7.259-4.044-4.009-4.68-10.764,7.444-14.588,14.685-1.519,47.844-20.522,58.926-29.441,10.588-8.522,15.533-7.188,17.643-13.228C551.71,119.433,562.457,88.6,562.457,88.6S524.83,84.3,518.269,82.406Z" transform="translate(262.344 203.499)" fill="#ffc9b6"/>
    <path id="Path_577" data-name="Path 577" d="M462.349,72.367C446.48,80.95,439.16,109.34,442.922,133.73c3.082,20.019,5.1,27.9,5.1,27.9s25.865,3.506,46.193,7.524c12.513-24.761,10.438-42.025,10-63.607C503.8,84.667,477.317,71.642,462.349,72.367Z" transform="translate(330.583 124.659)" fill="#263364"/>
    <path id="Path_578" data-name="Path 578" d="M442.639,84.256A61.511,61.511,0,0,1,466.3,82.7a172.334,172.334,0,0,1,24.487,4.989l-5.581,12.751s-14.765-4.2-22.694-4.76-18.023,1.7-18.023,1.7Z" transform="translate(335.97 202.037)" fill="#ffbbe2"/>
    <path id="Path_579" data-name="Path 579" d="M449.552,68.986s-7.241,9.148-11.215,18.579-6.508,22.889-7.683,31.446a57.47,57.47,0,0,0-.415,14.191s10.473,5.431,12.186,6.358c2.181-4.115,4.777-14.685,7.585-23.754,4.106-13.29,9.272-33.556,9.272-33.556A119.108,119.108,0,0,1,449.552,68.986Z" transform="translate(236.954 98.413)" fill="#263364"/>
    <path id="Path_580" data-name="Path 580" d="M433.8,76.258,429.54,89.433l12.23,5.643L446.733,81A23.55,23.55,0,0,0,433.8,76.258Z" transform="translate(233.397 155.357)" fill="#ffbbe2"/>
    <g id="Group_231" data-name="Group 231" transform="translate(1463.56 557.683)">
      <path id="Path_581" data-name="Path 581" d="M520.205,113.581V299.393c0,1.943,2.967,3.515,6.613,3.515s6.623-1.572,6.623-3.515V113.581Z" transform="translate(-520.205 -110.066)" fill="#3d2828"/>
      <path id="Path_582" data-name="Path 582" d="M526.819,113.183c-3.646,0-6.613,1.572-6.613,3.515s2.967,3.523,6.613,3.523,6.623-1.581,6.623-3.523S530.475,113.183,526.819,113.183Z" transform="translate(-520.205 -113.183)" fill="#593d3d"/>
    </g>
    <path id="Path_583" data-name="Path 583" d="M602.157,225.27h9.352v-49.4c0-17.211-10.641-37.353-23.719-44.9l-49.424-28.531c-6.623-3.832-13.246-4.221-18.641-1.1-6.19,3.585-9.749,11.347-9.749,21.308v227.8h9.343v-227.8c0-6.437,1.9-11.374,5.086-13.211,2.375-1.369,5.731-.954,9.29,1.095l49.425,28.532c10.323,5.969,19.039,22.818,19.039,36.815Z" transform="translate(863.248 335.389)" fill="#fff"/>
    <path id="Path_584" data-name="Path 584" d="M525.072,113.239c-2.57,0-4.653,1.113-4.653,2.481s2.083,2.473,4.653,2.473,4.663-1.1,4.663-2.473S527.65,113.239,525.072,113.239Z" transform="translate(945.023 444.938)" fill="#d8c4c3"/>
    <path id="Path_585" data-name="Path 585" d="M556.958,144.312s0,19.286-9.166,25.008c-9.378,5.855-28.408-33.883-28.408-33.883l35.843,4.186Z" transform="translate(936.925 618.761)" fill="#2b1b1a"/>
    <g id="Group_234" data-name="Group 234" transform="translate(1344.683 853.868)">
      <g id="Group_232" data-name="Group 232">
        <path id="Path_586" data-name="Path 586" d="M506.743,173.869c0-9.837,5.979-21.264,13.361-25.52a12.251,12.251,0,0,1,5.828-1.625,16.339,16.339,0,0,1,8.557,2.4c4.2,2.6,4.769,8.495,4.769,8.495l-15,30.819a11.353,11.353,0,0,1-9.793-.353,15.333,15.333,0,0,1-5.8-6.031,21.526,21.526,0,0,1-1.1-2.561A18.213,18.213,0,0,1,506.743,173.869Z" transform="translate(-506.743 -146.724)" fill="#281818"/>
        <path id="Path_587" data-name="Path 587" d="M534.146,158.816c0,9.837-5.978,21.264-13.352,25.52s-13.361-.265-13.361-10.093,5.987-21.264,13.361-25.52S534.146,148.988,534.146,158.816Z" transform="translate(-501.34 -143.61)" fill="#3f2a28"/>
        <path id="Path_588" data-name="Path 588" d="M522.874,154.566c0,5.387-3.276,11.648-7.321,13.979s-7.312-.141-7.312-5.528,3.276-11.648,7.312-13.979S522.874,149.18,522.874,154.566Z" transform="translate(-495.013 -135.474)" fill="#fff"/>
      </g>
      <g id="Group_233" data-name="Group 233" transform="translate(17.864 1.157)">
        <path id="Path_589" data-name="Path 589" d="M517.473,146.855h-8.707v25.388a3.971,3.971,0,0,0,1.36,3.391l-.009.018,3,1.563,2.676-3.144-.759-.3a11.052,11.052,0,0,0,2.437-6.552Z" transform="translate(-508.766 -146.855)" fill="#d8c4c3"/>
        <path id="Path_590" data-name="Path 590" d="M509.069,146.855v26.757c0,3.206,1.952,4.68,4.354,3.294s4.354-5.113,4.354-8.318V146.855Z" transform="translate(-506.393 -146.855)" fill="#eddcda"/>
      </g>
    </g>
    <g id="Group_237" data-name="Group 237" transform="translate(1232.879 788.063)">
      <g id="Group_235" data-name="Group 235">
        <path id="Path_591" data-name="Path 591" d="M494.082,166.408c0-9.828,5.979-21.255,13.352-25.512a12.284,12.284,0,0,1,5.837-1.625,16.216,16.216,0,0,1,8.557,2.393c4.2,2.6,4.769,8.5,4.769,8.5l-15,30.81a11.335,11.335,0,0,1-9.793-.344A15.386,15.386,0,0,1,496,174.6a20.328,20.328,0,0,1-1.113-2.561A18.286,18.286,0,0,1,494.082,166.408Z" transform="translate(-494.082 -139.272)" fill="#281818"/>
        <path id="Path_592" data-name="Path 592" d="M521.476,151.366c0,9.837-5.979,21.255-13.352,25.511s-13.352-.256-13.352-10.093,5.979-21.255,13.352-25.512S521.476,141.528,521.476,151.366Z" transform="translate(-488.679 -136.159)" fill="#3f2a28"/>
        <path id="Path_593" data-name="Path 593" d="M510.211,147.118c0,5.387-3.276,11.639-7.312,13.979s-7.32-.15-7.32-5.537,3.276-11.639,7.32-13.97S510.211,141.731,510.211,147.118Z" transform="translate(-482.36 -128.026)" fill="#fff"/>
      </g>
      <g id="Group_236" data-name="Group 236" transform="translate(17.864 1.157)">
        <path id="Path_594" data-name="Path 594" d="M504.8,139.4h-8.7v25.379a3.947,3.947,0,0,0,1.351,3.391l-.009.026,3.011,1.563,2.676-3.144-.769-.3a11.05,11.05,0,0,0,2.438-6.561Z" transform="translate(-496.105 -139.403)" fill="#d8c4c3"/>
        <path id="Path_595" data-name="Path 595" d="M496.408,139.4V166.16c0,3.206,1.943,4.671,4.354,3.285s4.345-5.1,4.345-8.31V139.4Z" transform="translate(-493.733 -139.403)" fill="#eddcda"/>
      </g>
    </g>
    <g id="Group_239" data-name="Group 239" transform="translate(1442.313 762.375)">
      <g id="Group_238" data-name="Group 238">
        <path id="Path_596" data-name="Path 596" d="M517.8,181.39c0-16.319,9.917-35.269,22.147-42.334a20.324,20.324,0,0,1,9.678-2.693,27.074,27.074,0,0,1,14.2,3.974c6.967,4.309,7.824,14.959,7.824,14.959l-24.8,50.263a18.846,18.846,0,0,1-16.248-.574,25.562,25.562,0,0,1-9.625-10.014,33.626,33.626,0,0,1-1.829-4.247A29.957,29.957,0,0,1,517.8,181.39Z" transform="translate(-517.799 -136.363)" fill="#281818"/>
        <path id="Path_597" data-name="Path 597" d="M563.247,156.432c0,16.31-9.917,35.26-22.155,42.325s-22.147-.433-22.147-16.743,9.917-35.269,22.147-42.334S563.247,140.114,563.247,156.432Z" transform="translate(-508.834 -131.204)" fill="#3f2a28"/>
        <path id="Path_598" data-name="Path 598" d="M544.558,149.383c0,8.928-5.439,19.312-12.142,23.18s-12.133-.238-12.133-9.175,5.431-19.312,12.133-23.189S544.558,140.447,544.558,149.383Z" transform="translate(-498.348 -117.708)" fill="#fff"/>
        <path id="Path_599" data-name="Path 599" d="M537.638,146.733c0,6.111-3.718,13.21-8.3,15.859s-8.3-.168-8.3-6.278,3.717-13.211,8.3-15.86S537.638,140.614,537.638,146.733Z" transform="translate(-492.452 -112.135)" fill="#3f2a28"/>
      </g>
    </g>
    <g id="Group_240" data-name="Group 240" transform="translate(1227.342 732.663)">
      <path id="Path_600" data-name="Path 600" d="M712.073,204.4l-5.1-18.571L627.247,139.8c-14.235-8.221-35.975-9.122-48.3-2l-64.083,37v-.645H493.455V195.56h.071c.495,5.157,4.442,10.482,11.718,14.685l89.1,51.447c14.244,8.221,35.984,9.122,48.312,2l69.479-40.117a40.046,40.046,0,0,1-1.015-9.184A57.167,57.167,0,0,1,712.073,204.4Z" transform="translate(-493.455 -132.998)" fill="#352221"/>
    </g>
    <path id="Path_601" data-name="Path 601" d="M620.624,128.808a34.67,34.67,0,0,0-9.829,3.594L501.773,195.558c-12.327,7.126-10.773,19.674,3.471,27.9l89.1,51.447c14.244,8.221,35.984,9.122,48.312,2l69.417-39.685c0-5.563,8.125-47.57,9.5-49.486l-101.5-58.6Z" transform="translate(733.887 566.852)" fill="#472f2e"/>
    <g id="Group_241" data-name="Group 241" transform="translate(1277.094 636.602)">
      <path id="Path_602" data-name="Path 602" d="M574.255,180.552l10.994-52.109-10.994-6.323s-7.753,4.477-23.269,13.44-19.648,9.493-30.51,32.417c-9.351,19.745-18.906,48.391-21.387,55.968l10.994,6.323Z" transform="translate(-499.089 -122.12)" fill="#593d3d"/>
      <path id="Path_603" data-name="Path 603" d="M575.5,181.268V122.836s-7.762,4.477-23.269,13.431-19.657,9.5-30.509,32.426c-9.352,19.745-18.915,48.383-21.388,55.968Z" transform="translate(-489.34 -116.513)" fill="#352221"/>
    </g>
    <g id="Group_242" data-name="Group 242" transform="translate(1270.488 549.364)">
      <path id="Path_604" data-name="Path 604" d="M574.257,166.053c-41.928,0-75.917-18.085-75.917-40.391V233.236c0,22.3,33.989,40.382,75.917,40.382s75.925-18.085,75.925-40.382V125.662C650.183,147.968,616.185,166.053,574.257,166.053Z" transform="translate(-498.341 -7.147)" fill="#d8c4c3"/>
      <path id="Path_605" data-name="Path 605" d="M498.341,220.631c0,22.306,33.989,40.391,75.917,40.391s75.925-18.085,75.925-40.391v-107.1H498.341Z" transform="translate(-498.341 -102.116)" fill="#352221"/>
      <path id="Path_606" data-name="Path 606" d="M498.341,219.338c0,22.3,33.989,40.382,75.917,40.382s75.925-18.085,75.925-40.382v-107.1H498.341Z" transform="translate(-498.341 -112.241)" fill="#778dfd"/>
    </g>
    <path id="Path_607" data-name="Path 607" d="M574.257,173.637c-41.928,0-75.917-18.085-75.917-40.382v6.526c0,22.3,33.989,40.382,75.917,40.382s75.925-18.085,75.925-40.382v-6.526C650.183,155.552,616.185,173.637,574.257,173.637Z" transform="translate(772.148 601.675)" fill="#ccb5b4"/>
    <path id="Path_608" data-name="Path 608" d="M574.257,170.981c-41.928,0-75.917-18.085-75.917-40.382v6.526c0,22.3,33.989,40.382,75.917,40.382s75.925-18.085,75.925-40.382V130.6C650.183,152.9,616.185,170.981,574.257,170.981Z" transform="translate(772.148 580.877)" fill="#ccb5b4"/>
    <path id="Path_609" data-name="Path 609" d="M566.257,170.656l33.777-33.724-10.985-6.314s-7.753,4.477-23.269,13.431-19.648,9.5-30.51,32.426c-9.352,19.745-18.906,48.383-21.388,55.968l10.994,6.323,23.269-18.032Z" transform="translate(893.85 581.025)" fill="#593d3d"/>
    <g id="Group_243" data-name="Group 243" transform="translate(1423.69 502.421)">
      <path id="Path_610" data-name="Path 610" d="M515.761,107.649c0-.247-.062-.477-.07-.724v1.448C515.7,108.126,515.761,107.9,515.761,107.649Z" transform="translate(-515.69 -106.925)" fill="#352221"/>
    </g>
    <path id="Path_611" data-name="Path 611" d="M531.755,171.468,498.123,152.05V119.093l33.632,19.418Z" transform="translate(770.441 490.78)" fill="#3d2828"/>
    <path id="Path_612" data-name="Path 612" d="M510.245,118.321l-12.122,6.816,33.632,19.418,12.122-6.816Z" transform="translate(770.441 484.736)" fill="#593d3d"/>
    <path id="Path_613" data-name="Path 613" d="M501.932,127.337v32.957l12.122-6.816V120.52Z" transform="translate(800.264 501.955)" fill="#352221"/>
    <path id="Path_614" data-name="Path 614" d="M568.836,175.018c8.7-5.016,16.425-4.071,21.449,1.431V131.333l-23.268,13.44c-15.507,8.954-19.648,9.5-30.5,32.417-9.351,19.745-18.915,48.391-21.387,55.968l27.233-15.718C545.488,200.017,556.146,182.347,568.836,175.018Z" transform="translate(903.598 586.624)" fill="#352221"/>
    <path id="Path_615" data-name="Path 615" d="M531.562,213.015,497.929,193.6V134.027l33.633,19.418Z" transform="translate(768.918 607.716)" fill="#3d2828"/>
    <path id="Path_616" data-name="Path 616" d="M510.05,133.255l-12.122,6.816,33.633,19.418,12.122-6.817Z" transform="translate(768.918 601.671)" fill="#593d3d"/>
    <path id="Path_617" data-name="Path 617" d="M501.737,142.271v59.57l12.122-6.816V135.454Z" transform="translate(798.742 618.89)" fill="#352221"/>
    <path id="Path_618" data-name="Path 618" d="M537.743,374.374a34.577,34.577,0,0,1-9.987-1.492c-18.6-5.572-25.75-16.266-28.479-24.257-4.777-13.988-.379-32.452,11.745-49.381a5.5,5.5,0,1,1,8.937,6.4c-7.771,10.844-14.562,26.9-10.288,39.428,2.755,8.071,9.9,13.882,21.238,17.281,6.791,2.04,13.528,1.051,20-2.923,13.378-8.186,23.728-27.56,28.417-53.151,5.81-31.755,2.967-101.437,1.086-147.55-.653-16.116-1.174-28.849-1.174-36.294a5.493,5.493,0,0,1,10.985,0c0,7.223.521,19.851,1.174,35.852,1.9,46.6,4.769,117.014-1.263,149.969-5.246,28.664-17.45,50.732-33.485,60.551A36.012,36.012,0,0,1,537.743,374.374Z" transform="translate(764.659 473.966)" fill="#593d3d"/>
    <path id="Path_619" data-name="Path 619" d="M667.814,152.621v-9.687h-2.306c-8.91-20-42.607-34.89-82.927-34.89s-74.009,14.888-82.928,34.89h-2.375v10.491c0,25.052,38.192,45.371,85.3,45.371s85.312-20.319,85.312-45.371C667.893,153.151,667.823,152.894,667.814,152.621Z" transform="translate(763.824 404.259)" fill="#352221"/>
    <path id="Path_620" data-name="Path 620" d="M582.581,106.648c-47.111,0-85.3,20.319-85.3,45.38s38.192,45.38,85.3,45.38,85.312-20.319,85.312-45.38S629.7,106.648,582.581,106.648Z" transform="translate(763.824 393.327)" fill="#472f2e"/>
    <g id="Group_244" data-name="Group 244" transform="translate(1270.488 460.988)">
      <path id="Path_621" data-name="Path 621" d="M574.257,148.316c-40.329,0-73.223-16.743-75.678-37.857h-.142c-.018.627-.1,1.236-.1,1.872v15.127h.239c2.455,21.114,35.349,37.857,75.678,37.857,41.927,0,75.925-18.076,75.925-40.382v-12.6c0-.971-.106-1.907-.15-2.861C648.5,131.052,615.213,148.316,574.257,148.316Z" transform="translate(-498.341 -45.563)" fill="#778dfd"/>
      <path id="Path_622" data-name="Path 622" d="M583.329,102.233H565.014a66.921,66.921,0,0,0-66.662,64.9h.142c2.455,21.114,35.349,37.857,75.678,37.857,40.956,0,74.247-17.264,75.775-38.846A66.921,66.921,0,0,0,583.329,102.233Z" transform="translate(-498.255 -102.233)" fill="#352221"/>
    </g>
    <ellipse id="Ellipse_25" data-name="Ellipse 25" cx="13.234" cy="7.04" rx="13.234" ry="7.04" transform="translate(1344.677 825.549)" fill="#3d2828"/>
    <ellipse id="Ellipse_26" data-name="Ellipse 26" cx="13.234" cy="7.04" rx="13.234" ry="7.04" transform="translate(1236.346 767.969)" fill="#3d2828"/>
    <path id="Path_623" data-name="Path 623" d="M582.212,105.475,502.9,151.261c10.058,4.309,22.818,6.888,36.735,6.888,32.417,0,58.7-13.979,58.7-31.225C598.328,118.606,592.173,111.074,582.212,105.475Z" transform="translate(807.815 384.142)" fill="#472f2e"/>
    <path id="Path_624" data-name="Path 624" d="M502.9,157.888s0-26.827,35.667-45.786c31.631-16.813,43.649,0,43.649,0Z" transform="translate(807.815 377.516)" fill="#3d2828"/>
    <path id="Path_625" data-name="Path 625" d="M510.67,109.73c-2.932,0-5.316,1.263-5.316,2.826s2.384,2.826,5.316,2.826,5.325-1.263,5.325-2.826S513.611,109.73,510.67,109.73Z" transform="translate(827.063 417.461)" fill="#d8c4c3"/>
    <path id="Path_626" data-name="Path 626" d="M512.446,108.706c-2.932,0-5.316,1.263-5.316,2.826s2.384,2.826,5.316,2.826,5.325-1.263,5.325-2.826S515.387,108.706,512.446,108.706Z" transform="translate(840.97 409.442)" fill="#d8c4c3"/>
    <path id="Path_627" data-name="Path 627" d="M514.213,107.672c-2.932,0-5.316,1.272-5.316,2.835s2.384,2.826,5.316,2.826,5.325-1.263,5.325-2.826S517.154,107.672,514.213,107.672Z" transform="translate(854.807 401.346)" fill="#d8c4c3"/>
    <path id="Path_628" data-name="Path 628" d="M515.989,106.648c-2.932,0-5.316,1.272-5.316,2.835s2.384,2.826,5.316,2.826,5.325-1.263,5.325-2.826S518.93,106.648,515.989,106.648Z" transform="translate(868.714 393.327)" fill="#d8c4c3"/>
    <path id="Path_629" data-name="Path 629" d="M554.8,112.551l-38.942,22.483-8.221-4.746L546.579,107.8Z" transform="translate(844.925 402.383)" fill="#d8c4c3"/>
    <path id="Path_630" data-name="Path 630" d="M563.977,86.017,534.862,67S519.011,75.1,510.746,86.017s-13.749,29.1-10.084,40.135c-8.539,24.284-10.429,66.079-11.585,74.91-5.722,25.317-21.529,103.079-21.273,117.084,4.654,6.393,19.277,17.935,29.194,8.124s37.212-152.707,37.212-152.707l-3.982-1.545C546.227,133.172,563.977,86.017,563.977,86.017Z" transform="translate(532.992 82.83)" fill="#263364"/>
    <path id="Path_631" data-name="Path 631" d="M477.929,95.437s-5.413,11.692-9.007,18.482-2.834,20.593,0,29.123,14.844,16.239,26.421,4.239,8.38-44.144,8.38-44.144S487.1,102.307,477.929,95.437Z" transform="translate(522.865 305.539)" fill="#ffc9b6"/>
    <path id="Path_632" data-name="Path 632" d="M516.493,86.708s-25.344,64.64-29.265,90.8-11.815,65.761-16.54,98.717-4.663,65.072-2.464,97.251c.875,12.778,5.546,46.166,3.082,64.3,2.773,11.789,30.413,13.264,33.688-.442,2.031-8.5,23.251-83.776,25.4-107.459s-3.444-40.647-3.444-40.647,34.51-73.894,46.617-102.973,3.868-65.108,3.868-65.108Z" transform="translate(525.011 237.186)" fill="#2c1d1b"/>
    <path id="Path_633" data-name="Path 633" d="M544.124,126.58a106.868,106.868,0,0,0,3.364,15.939c2.438,8.151-.557,19.516-.557,19.516s-1.766,5.007-9.307,6.49a29.356,29.356,0,0,1-12.725-.309,94.215,94.215,0,0,1-15.948,14.756c-9.033,6.393-28.973,11.356-34.395,10.535-8.751-1.333-13.44-8.159-12.769-12.557s10.985-16.584,19.437-21.865c5.5-3.426,17.987-15.021,21.732-19.047a103.824,103.824,0,0,0,10.782-14.049Z" transform="translate(485.415 544.77)" fill="#2c1d1b"/>
    <path id="Path_634" data-name="Path 634" d="M538.667,133.566s4.671,17.361,4.088,27.41-2.984,12.442-6.022,15.824a6.01,6.01,0,0,1-6.6,1.925s-1.4,20.717-11.224,29.088-27.63,9.166-35.808,6.128-2.8-17.873,5.21-32.417,18.208-30.192,20.76-43.331C528.662,135.491,538.667,133.566,538.667,133.566Z" transform="translate(620.945 604.11)" fill="#2c1d1b"/>
    <path id="Path_635" data-name="Path 635" d="M557.139,92.508s12.407,17.546,22.3,48.418c6.95,21.7,5.828,73.744,5.828,73.744s1.784,51.253-1.528,68.975-3.02,21.308-3.02,21.308,14.226,42.484,12.027,92.73-6.287,86.283-6.287,86.283-2.809,9.5-15.7,10.809c-11.762,1.2-20.337-6.95-20.337-6.95S528.863,381.452,520.881,357.2s-10.924-52.189-10.924-52.189L493.638,185.564s-32.285-21.07-15.736-74.221C488.261,78.061,557.139,92.508,557.139,92.508Z" transform="translate(575.143 258.169)" fill="#3f2a28"/>
    <path id="Path_636" data-name="Path 636" d="M615.256,119.028c-16-31.817-64.083-54.688-98.664-49.69-16.558,13.184-24.222,22.015-30.2,37.821a102.131,102.131,0,0,0-5.969,46.166c5.219,44.9-5.449,88.606-9.316,105.719,18.333,19.18,42.687,31.6,69.558,36.267,14.58,2.526,25.22-2.949,39.429-8.221a4.759,4.759,0,0,0,3.285-4.318c4.83-36.285,17.29-66.706,29.865-100.633C619.963,164,624.387,137.193,615.256,119.028Z" transform="translate(558.882 95.799)" fill="#8da3ff"/>
    <path id="Path_637" data-name="Path 637" d="M561.25,77.2A176.358,176.358,0,0,0,543.4,103.447c-7.276,13.555-9.14,29.035-9.14,29.035l46.007,24.955s16.248-28.063,27.958-42c12.76-15.189,19.931-21.246,19.931-21.246l7.992,5.766S620.989,116.914,613.7,130.4c-3.717,6.9-16.592,27.057-19.709,43.755-1.192,6.438,2.729,42.855,5.139,61.805,4.283,33.768,34,27.807,34,27.807s5.669,23.109,12.918,60.419c5.3,27.251,4.654,52.074,4.045,93.516-.468,31.631-2.1,68.481-2.1,68.481s-48.93,15.462-81.859,9.864c-40.294-6.861-69.638-24.461-79.563-31.163-15.595-10.526-21.167-22.8-21.167-22.8s15.957-60.242,30.438-117.95c9.82-39.172,11.851-61.328,16.928-88.173,3.214-17.025,7.162-53.284,7.5-76.808S532.63,99.182,540.41,87.164c10.72-16.548,20-19.516,20-19.516Z" transform="translate(514.224 87.936)" fill="#8da3ff"/>
    <path id="Path_638" data-name="Path 638" d="M486.261,77.622s3.312,21.9-4.716,29.476-8.08,23.163,7.983,28.4c19.471,6.349,33.22-7.691,45.354-17.361-5.246-11.109-7.806-11.038-7.806-42.219C527.076,50.557,486.261,77.622,486.261,77.622Z" transform="translate(599.219 67.762)" fill="#f9bba7"/>
    <path id="Path_639" data-name="Path 639" d="M591.215,199.03h0V187.373H575.726l-77.179-44.559c-4.247-2.455-11.727-2.146-16.628.689L463.7,154.02l.018-.5-15.851,1.174.053,10.994c-.256,1.766.653,3.488,2.808,4.733L540.58,222.3c4.248,2.446,11.727,2.137,16.628-.689l30-17.317C589.81,202.782,591.135,200.866,591.215,199.03Z" transform="translate(376.916 663.555)" fill="#352221"/>
    <path id="Path_640" data-name="Path 640" d="M450.733,169.106l89.851,51.88c4.248,2.446,11.727,2.137,16.628-.689l30-17.325c4.9-2.826,5.44-7.144,1.192-9.6L498.55,141.5c-4.247-2.455-11.727-2.146-16.628.689l-30,17.317C447.024,162.333,446.485,166.652,450.733,169.106Z" transform="translate(376.912 653.281)" fill="#472f2e"/>
    <path id="Path_641" data-name="Path 641" d="M463.565,531.987l-7.983-11.162c28.337-20.24,31.675-27.64,50.2-68.684,12.08-26.748,38.554-93.878,61.9-153.1,21.988-55.765,42.757-108.439,49.354-122.056l1.554-3.2c14.5-29.936,22.492-46.44,42.935-54.926,18.385-7.638,55.491-24.125,55.853-24.293l5.572,12.539c-.371.168-37.626,16.716-56.162,24.417-15.63,6.49-21.97,19.577-35.861,48.25l-1.545,3.2c-6.376,13.149-27.048,65.585-48.939,121.093C555.9,366.343,530.5,430.735,518.288,457.783,499.85,498.616,494.9,509.592,463.565,531.987Z" transform="translate(437.32 298.711)" fill="#d8c4c3"/>
    <g id="Group_245" data-name="Group 245" transform="translate(887.107 646.095)">
      <path id="Path_642" data-name="Path 642" d="M457.163,305.069c-4.3-3.7-2.473-7.718,6.1-15.091,6.614-5.7,20.4-16.1,27.754-27.878,9.086-14.526,45.168-103.9,58.3-137.112,2.093-5.281,21.229,2.278,19.136,7.568-4.9,12.4-48.259,121.694-59.986,140.459a109.558,109.558,0,0,1-30.377,31.543C474.021,307.8,464.422,311.312,457.163,305.069Z" transform="translate(-454.926 -123.195)" fill="#593d3d"/>
    </g>
    <path id="Path_643" data-name="Path 643" d="M468.138,122.779l-1.987,4.866c-.654,1.775,1.731,4.292,5.325,5.616s7.029.954,7.683-.821l1.9-5.042Z" transform="translate(519.234 519.642)" fill="#d8c4c3"/>
    <path id="Path_644" data-name="Path 644" d="M480.793,152.4v-9.21s-10.694,2.923-15.833,8.053-8.566,15.877-8.566,15.877Z" transform="translate(443.679 679.456)" fill="#352221"/>
    <g id="Group_246" data-name="Group 246" transform="translate(868.486 803.879)">
      <path id="Path_645" data-name="Path 645" d="M494.259,169.762a148.5,148.5,0,0,1,14.544-9.934l-31.569-18.765a149.362,149.362,0,0,0-14.553,9.943c-4.91,3.938-9.864,14.005-9.864,14.005L484.4,183.759S489.349,173.7,494.259,169.762Z" transform="translate(-452.817 -141.063)" fill="#593d3d"/>
    </g>
    <path id="Path_646" data-name="Path 646" d="M566.355,552.483a54.519,54.519,0,0,1-6.261-.371c-19.56-2.3-34.271-11.409-43.72-27.066C497.821,494.281,501.38,439.8,526.132,375.6c4.459-11.542,9.979-24.779,15.833-38.793,23.648-56.622,53.08-127.089,47.473-168.681-3.876-28.69-12.884-47.915-26.783-57.143-11.965-7.939-25.423-6.641-34.581-4.15-19.789,5.369-40.038,14.606-40.24,14.694a5.139,5.139,0,1,1-4.283-9.343A307.479,307.479,0,0,1,525.39,96.9c16.072-4.354,30.942-2.455,42.952,5.519,16.478,10.932,27,32.585,31.287,64.339C605.607,211.111,575.583,283,551.467,340.77c-5.828,13.952-11.338,27.119-15.728,38.528-23.269,60.322-27.207,112.819-10.552,140.432,7.718,12.8,19.869,20.248,36.117,22.165,10.314,1.2,18.686-1.139,25.564-7.206,23.472-20.734,23.86-80,24.1-115.406.071-10.2.124-19.012.68-25.026,5.881-63.253,37.848-63.977,39.208-63.977a5.139,5.139,0,1,1,0,10.279c-.15.009-24.019,1.5-28.956,54.643-.521,5.581-.574,14.182-.645,24.143-.265,39.534-.653,99.282-27.569,123.054A40.039,40.039,0,0,1,566.355,552.483Z" transform="translate(632.809 299.107)" fill="#593d3d"/>
    <path id="Path_647" data-name="Path 647" d="M543.835,111.653c-1.192-27.542-31.172-39.208-31.172-39.208s-21.493,17.449-18.332,76.013c1.174,5.448,9.51,10.685,12.019,16.239-1.086,22.589,4.035,33.7,12.627,44.815-7.568,4.98-25.414,33.689-36.32,47.968,15.921,4.557,15.639,22.491,15.639,22.491s40.85-18.456,61.726-43.8c8.539-10.358,5.563-20.284,8.822-31.5C575.042,183.3,544.895,136.21,543.835,111.653Z" transform="translate(649.333 125.499)" fill="#263364"/>
    <path id="Path_648" data-name="Path 648" d="M525.371,68.676s-3.753,13.237-13.82,20.814c-12.142,9.148-34.987,10.641-34.987,16.884,6.632,0,7.921.389,7.921,5.166,0,8.963,2.641,11.021,2.641,11.021s16.486-4.689,28.363-9.643c14.88-6.2,21.653-26.783,21.653-26.783S534.219,67.846,525.371,68.676Z" transform="translate(601.621 95.773)" fill="#263364"/>
    <path id="Path_649" data-name="Path 649" d="M494.794,68.73s-9.652,10.482-13.785,15.3-1.722,13.714-3.788,17.705a54.458,54.458,0,0,0-2.985,6.7s8.61-1.74,10.279-6.7,10.279,4,10.279,4l6.084-5s-9.184-5.881-6.084-12.151,8.265-14.544,8.265-14.544Z" transform="translate(583.392 96.408)" fill="#263364"/>
    <path id="Path_650" data-name="Path 650" d="M537.346,71.061c-12.062-13.352-43.87-18.836-55.271.724-8.583,14.721-8.937,40.921-6.614,52.966,4.892,25.282,25.644,40.329,49.548,20.9C547.811,127.126,558.16,94.082,537.346,71.061Z" transform="translate(583.393 20.351)" fill="#ffc9b6"/>
    <path id="Path_651" data-name="Path 651" d="M575.623,100.2c-1.987-8.583-13.158-19.833-23.463-17.67,1.934-9.3-2.428-20.478-12.407-23.445-20.822-6.19-39.843,6.614-59.889,11.109-5.7,1.28-7.17,4.4,2.623,10.429-5.4.459-10.446,3.462-9.722,9.59.512,4.274,3.444,6.349,7.073,7.294-5.563,8.036,2.428,14.853,9.987,17.846,12.672,5.033,29.918,4.857,41.283-3.3,2.623,11.745,13.1,26.818,23.9,29.883C565.741,134.083,578.467,112.527,575.623,100.2Z" transform="translate(571.326 7.893)" fill="#2c1d1b"/>
    <path id="Path_652" data-name="Path 652" d="M479.968,70.406s6.967-10.57,13.175-2.525-6.517,15.842-6.517,15.842Z" transform="translate(628.276 66.104)" fill="#ffc9b6"/>
    <path id="Path_653" data-name="Path 653" d="M475.32,90.532c2.649.141,15.277,10.835,29.052,12.8,15.268,2.19,22.377-1.466,28.09-4.062-3.6-.132-13.343,1.519-27.375-2.155S475.32,90.532,475.32,90.532Z" transform="translate(591.88 267.13)" fill="#a6c2ff"/>
    <path id="Path_654" data-name="Path 654" d="M519.636,93.191c-7.656,5.413-13.837,11.047-21.043,13.74-8.839,3.294-12.522,3.576-17.546,10.632s-2.058,15.083-2.058,15.083l11.9-5.422s3.567,6.835-.937,12.142c-2.516,2.958-11.347,10.605-11.347,10.605s12.354,9.369,30.085,2.879,14.208-18.6,19.692-26.942,10.244-10.641,10.244-10.641,2.729-4.7-3.126-12.583C528.025,92.626,524.881,93.191,519.636,93.191Z" transform="translate(613.767 287.907)" fill="#ffc9b6"/>
    <path id="Path_655" data-name="Path 655" d="M472.7,86.379s8.336,11.533,19.763,18.394a77.294,77.294,0,0,0,22.668,9s-11.833-9.29-19.25-15.144S472.7,86.379,472.7,86.379Z" transform="translate(571.325 234.61)" fill="#a6c2ff"/>
    <path id="Path_656" data-name="Path 656" d="M513.093,101.175s-12,32.02-22.739,60.207c-6.04,15.833-15.551,37.512-15.551,37.512s12.84-7.073,23.816-31.216C510.576,141.363,513.093,101.175,513.093,101.175Z" transform="translate(587.832 350.471)" fill="#a6c2ff"/>
  </g>
</svg>
